# Blender v2.73 (sub 0) OBJ File: ''
# www.blender.org
mtllib test3.mtl
o Wall_Plane.001
v 10.000000 9.000000 10.000000
v 10.000000 -1.000000 10.000000
v 10.000000 9.000000 -10.000000
v 10.000000 -1.000000 -10.000000
vn 1.000000 0.000000 0.000000
usemtl None
s off
f 1//1 2//1 4//1 3//1
o Floor_Plane
v -10.000000 -1.000000 10.000000
v 10.000000 -1.000000 10.000000
v -10.000000 -1.000000 -10.000000
v 10.000000 -1.000000 -10.000000
vn 0.000000 1.000000 0.000000
usemtl None
s off
f 5//2 6//2 8//2 7//2
o Icosphere
v 0.799298 0.059553 -2.840335
v 1.075686 1.506773 -1.989686
v 0.075690 1.506773 -2.314610
v 0.075690 1.506773 -3.366060
v 1.075686 1.506773 -3.690984
v 1.693724 1.506769 -2.840335
v 0.799298 2.059553 -2.840335
v 1.062166 0.533816 -2.031323
v 1.649945 0.533817 -2.840335
v 0.111108 0.533817 -2.340338
v 0.111108 0.533817 -3.340332
v 1.062166 0.533816 -3.649347
vn -0.175400 -0.823400 0.539700
vn -0.187600 0.794700 -0.577300
vn 0.491100 0.794700 -0.356800
vn -0.607100 0.794700 0.000000
vn -0.187600 0.794700 0.577300
vn 0.491100 0.794700 0.356800
vn 0.808500 -0.036400 -0.587400
vn -0.308800 -0.036400 -0.950400
vn -0.999300 -0.036400 0.000000
vn -0.308800 -0.036400 0.950400
vn 0.808500 -0.036400 0.587400
vn 0.459100 -0.823400 -0.333500
vn -0.175400 -0.823400 -0.539700
vn -0.567400 -0.823400 0.000000
vn 0.459100 -0.823400 0.333500
usemtl None
s off
f 9//3 16//3 18//3
f 13//4 12//4 15//4
f 14//5 13//5 15//5
f 12//6 11//6 15//6
f 11//7 10//7 15//7
f 10//8 14//8 15//8
f 17//9 20//9 14//9
f 20//9 13//9 14//9
f 20//10 12//10 13//10
f 20//10 19//10 12//10
f 19//11 11//11 12//11
f 19//11 18//11 11//11
f 18//12 16//12 11//12
f 16//12 10//12 11//12
f 16//13 17//13 10//13
f 17//13 14//13 10//13
f 9//14 20//14 17//14
f 9//15 19//15 20//15
f 9//16 18//16 19//16
f 17//17 16//17 9//17
o inside_Cube.001
v -1.000000 -1.000000 1.000000
v -1.000000 -1.000000 -1.000000
v 1.000000 -1.000000 -1.000000
v 1.000000 -1.000000 1.000000
v -1.000000 1.000000 1.000000
v -1.000000 1.000000 -1.000000
v 1.000000 1.000000 -1.000000
v 1.000000 1.000000 1.000000
vn -1.000000 0.000000 0.000000
vn 0.000000 0.000000 -1.000000
vn 1.000000 0.000000 0.000000
vn 0.000000 0.000000 1.000000
vn 0.000000 -1.000000 0.000000
vn 0.000000 1.000000 0.000000
usemtl None
s off
f 25//18 26//18 22//18 21//18
f 26//19 27//19 23//19 22//19
f 27//20 28//20 24//20 23//20
f 28//21 25//21 21//21 24//21
f 21//22 22//22 23//22 24//22
f 28//23 27//23 26//23 25//23
